<?xml version="1.0" encoding="UTF-8"?>
<!DOCTYPE svg PUBLIC "-//W3C//DTD SVG 1.1//EN" "http://www.w3.org/Graphics/SVG/1.1/DTD/svg11.dtd">
<!-- Creator: CorelDRAW X7 -->
<svg xmlns="http://www.w3.org/2000/svg" xml:space="preserve" width="144px" height="144px" version="1.1" style="shape-rendering:geometricPrecision; text-rendering:geometricPrecision; image-rendering:optimizeQuality; fill-rule:evenodd; clip-rule:evenodd"
viewBox="0 0 14400 14400"
 xmlns:xlink="http://www.w3.org/1999/xlink">
 <defs>
  <style type="text/css">
   <![CDATA[
    .fil0 {fill:#718FC8}
   ]]>
  </style>
 </defs>
 <g id="Layer_x0020_1">
  <metadata id="CorelCorpID_0Corel-Layer"/>
  <path class="fil0" d="M8084 1828c2564,427 4520,2669 4520,5371 0,2028 -1103,3797 -2738,4734l0 -3209 0 -1254 0 -540 -3550 0 0 -5099 0 -1827c-621,77 -1218,234 -1779,459l-3 1 0 0c-2657,1069 -4534,3683 -4534,6738 0,3702 2756,6757 6316,7199l0 -1828c-2564,-428 -4519,-2669 -4519,-5371 0,-2028 1102,-3798 2737,-4734l0 4462 0 1794 3550 0 0 3845 0 1828c622,-77 1218,-234 1780,-460l2 0 0 -1c2657,-1068 4534,-3682 4534,-6737 0,-3703 -2756,-6757 -6316,-7199l0 1828z"/>
 </g>
</svg>
