<?xml version="1.0" encoding="UTF-8"?>
<!DOCTYPE svg PUBLIC "-//W3C//DTD SVG 1.1//EN" "http://www.w3.org/Graphics/SVG/1.1/DTD/svg11.dtd">
<!-- Creator: CorelDRAW X7 -->
<svg xmlns="http://www.w3.org/2000/svg" xml:space="preserve" width="144px" height="144px" version="1.1" style="shape-rendering:geometricPrecision; text-rendering:geometricPrecision; image-rendering:optimizeQuality; fill-rule:evenodd; clip-rule:evenodd"
viewBox="0 0 14400 14400"
 xmlns:xlink="http://www.w3.org/1999/xlink">
 <defs>
  <style type="text/css">
   <![CDATA[
    .fil2 {fill:#FEFEFE}
    .fil0 {fill:#718FC8}
    .fil1 {fill:#5776AE}
   ]]>
  </style>
 </defs>
 <g id="Layer_x0020_1">
  <metadata id="CorelCorpID_0Corel-Layer"/>
  <g id="_252375816">
   <rect class="fil0" width="14400" height="14400" rx="1702" ry="1661"/>
   <path class="fil1" d="M14400 8124l0 4574c0,936 -766,1702 -1702,1702l-7374 0 -2653 -4049c-61,-87 -119,-176 -175,-266 -515,-840 -812,-1827 -812,-2884 0,-2325 1439,-4315 3474,-5128l0 0 2 -1c430,-171 887,-291 1363,-350l4549 6942c57,-149 105,-302 144,-459l-3339 -5094 0 -1391c1705,210 3169,1197 4027,2595l2496 3809zm-4564 -4119l-285 -216c98,68 193,140 285,216zm-285 -216l-304 -191c104,59 205,123 304,191zm-304 -191l-321 -165c110,50 217,105 321,165zm-321 -165l-336 -137c114,40 227,86 336,137zm-336 -137l-350 -108c119,31 236,67 350,108zm-350 -108l-363 -77c123,20 244,46 363,77zm2522 1899l-197 -300c70,97 135,197 197,300zm-197 -300l-220 -281c77,90 151,184 220,281zm-220 -281l-244 -262c85,84 166,171 244,262zm-244 -262l-265 -239c92,76 180,156 265,239zm-7023 3339l51 371c-22,-122 -39,-246 -51,-371zm51 371l83 360c-33,-118 -60,-238 -83,-360zm83 360l114 348c-43,-114 -81,-230 -114,-348zm114 348l142 333c-52,-108 -100,-220 -142,-333zm142 333l170 318c-61,-103 -118,-209 -170,-318zm170 318l197 300c-70,-97 -135,-197 -197,-300zm-244 -3742l-99 254c30,-86 64,-171 99,-254zm-99 254l-82 262c24,-89 52,-176 82,-262zm-82 262l-66 269c19,-91 41,-180 66,-269zm-66 269l-47 276c13,-92 28,-185 47,-276zm-47 276l-29 282c6,-95 16,-189 29,-282zm-29 282l-10 287c0,-96 3,-192 10,-287zm-10 287l17 382c-11,-126 -17,-253 -17,-382zm1647 -3307l-209 169c68,-59 138,-115 209,-169zm-209 169l-197 181c64,-62 130,-123 197,-181zm-197 181l-185 194c59,-66 121,-131 185,-194zm-185 194l-173 206c55,-70 113,-139 173,-206zm-173 206l-159 217c51,-74 104,-147 159,-217zm-159 217l-145 227c46,-77 94,-153 145,-227zm-145 227l-131 237c41,-81 85,-160 131,-237zm-131 237l-115 246c36,-84 74,-166 115,-246zm1649 -1727l-230 141c75,-49 152,-97 230,-141zm-230 141l-220 155c72,-54 145,-106 220,-155z"/>
   <path class="fil2" d="M7877 3111c1964,325 3462,2031 3462,4088 0,1544 -844,2890 -2097,3603l0 -2443 0 -953 0 -412 -2719 0 0 -3881 0 -1391c-476,59 -933,179 -1363,350l-2 1 0 0c-2035,813 -3474,2803 -3474,5128 0,2818 2112,5143 4839,5479l0 -1391c-1964,-325 -3462,-2031 -3462,-4088 0,-1544 844,-2890 2097,-3603l0 3396 0 1365 2719 0 0 2927 0 1391c476,-58 933,-178 1363,-349l2 -1 0 0c2036,-813 3474,-2803 3474,-5128 0,-2818 -2112,-5143 -4839,-5479l0 1391z"/>
  </g>
 </g>
</svg>
