<?xml version="1.0" encoding="UTF-8"?>
<!DOCTYPE svg PUBLIC "-//W3C//DTD SVG 1.1//EN" "http://www.w3.org/Graphics/SVG/1.1/DTD/svg11.dtd">
<!-- Creator: CorelDRAW X7 -->
<svg xmlns="http://www.w3.org/2000/svg" xml:space="preserve" width="256px" height="256px" version="1.1" style="shape-rendering:geometricPrecision; text-rendering:geometricPrecision; image-rendering:optimizeQuality; fill-rule:evenodd; clip-rule:evenodd"
viewBox="0 0 25600 25600"
 xmlns:xlink="http://www.w3.org/1999/xlink">
 <defs>
  <style type="text/css">
   <![CDATA[
    .fil0 {fill:#718FC8}
   ]]>
  </style>
 </defs>
 <g id="Layer_x0020_1">
  <metadata id="CorelCorpID_0Corel-Layer"/>
  <path class="fil0" d="M14372 3250c4558,760 8034,4745 8034,9548 0,3606 -1960,6751 -4867,8416l0 -5705 0 -2228 0 -960 -6311 0 0 -9065 0 -3249c-1104,137 -2164,416 -3163,817l-4 1 0 1c-4724,1900 -8061,6546 -8061,11978 0,6582 4899,12011 11228,12797l0 -3249c-4558,-760 -8034,-4745 -8034,-9548 0,-3606 1960,-6752 4867,-8417l0 7934 0 3188 6311 0 0 6837 0 3249c1105,-138 2165,-416 3163,-818l4 -1 0 0c4724,-1900 8062,-6546 8062,-11978 0,-6582 -4900,-12012 -11229,-12797l0 3249z"/>
 </g>
</svg>
