<?xml version="1.0" encoding="UTF-8"?>
<!DOCTYPE svg PUBLIC "-//W3C//DTD SVG 1.1//EN" "http://www.w3.org/Graphics/SVG/1.1/DTD/svg11.dtd">
<!-- Creator: CorelDRAW X7 -->
<svg xmlns="http://www.w3.org/2000/svg" xml:space="preserve" width="256px" height="256px" version="1.1" style="shape-rendering:geometricPrecision; text-rendering:geometricPrecision; image-rendering:optimizeQuality; fill-rule:evenodd; clip-rule:evenodd"
viewBox="0 0 25600 25600"
 xmlns:xlink="http://www.w3.org/1999/xlink">
 <defs>
  <style type="text/css">
   <![CDATA[
    .fil2 {fill:#FEFEFE}
    .fil0 {fill:#718FC8}
    .fil1 {fill:#5776AE}
   ]]>
  </style>
 </defs>
 <g id="Layer_x0020_1">
  <metadata id="CorelCorpID_0Corel-Layer"/>
  <g id="_256526848">
   <rect class="fil0" width="25600" height="25600" rx="3025" ry="2952"/>
   <path class="fil1" d="M25600 14443l0 8132c0,1664 -1361,3025 -3025,3025l-13109 0 -4718 -7199c-108,-154 -211,-312 -310,-473 -915,-1492 -1443,-3247 -1443,-5126 0,-4134 2556,-7671 6175,-9116l0 -1 3 -1c765,-305 1577,-517 2423,-622l8088 12342c100,-266 186,-538 256,-817l-5936 -9057 0 -2473c3031,374 5633,2129 7158,4615l4438 6771zm-8114 -7323l-507 -384c174,121 343,249 507,384zm-507 -384l-540 -340c185,106 365,219 540,340zm-540 -340l-570 -293c194,89 385,187 570,293zm-570 -293l-598 -244c203,72 403,154 598,244zm-598 -244l-622 -192c211,55 419,119 622,192zm-622 -192l-645 -137c219,37 433,82 645,137zm4483 3377l-349 -533c124,172 240,350 349,533zm-349 -533l-392 -501c137,161 268,328 392,501zm-392 -501l-434 -464c151,148 296,303 434,464zm-434 -464l-471 -426c163,135 320,277 471,426zm-12484 5934l90 660c-40,-217 -70,-437 -90,-660zm90 660l148 641c-59,-210 -108,-424 -148,-641zm148 641l201 618c-76,-202 -143,-408 -201,-618zm201 618l254 592c-93,-193 -178,-391 -254,-592zm254 592l302 565c-108,-184 -209,-372 -302,-565zm302 565l349 533c-124,-172 -240,-350 -349,-533zm-434 -6653l-176 452c54,-152 113,-304 176,-452zm-176 452l-147 467c44,-158 93,-313 147,-467zm-147 467l-116 478c33,-161 72,-321 116,-478zm-116 478l-84 491c23,-165 51,-329 84,-491zm-84 491l-52 501c12,-169 29,-336 52,-501zm-52 501l-17 510c0,-171 6,-341 17,-510zm-17 510l31 678c-21,-223 -31,-449 -31,-678zm2928 -5879l-371 300c121,-104 244,-204 371,-300zm-371 300l-351 323c113,-111 230,-219 351,-323zm-351 323l-330 345c107,-119 216,-234 330,-345zm-330 345l-306 365c98,-125 200,-247 306,-365zm-306 365l-283 385c90,-131 184,-260 283,-385zm-283 385l-258 404c81,-137 168,-272 258,-404zm-258 404l-232 421c73,-143 150,-283 232,-421zm-232 421l-205 437c64,-148 132,-294 205,-437zm2931 -3070l-409 251c133,-88 270,-171 409,-251zm-409 251l-391 276c127,-96 257,-188 391,-276z"/>
   <path class="fil2" d="M14004 5530c3492,579 6154,3612 6154,7268 0,2744 -1501,5138 -3728,6406l0 -4343 0 -1696 0 -731 -4834 0 0 -6899 0 -2473c-846,105 -1658,317 -2423,622l-3 1 0 1c-3619,1445 -6175,4982 -6175,9116 0,5010 3753,9143 8601,9740l0 -2472c-3491,-579 -6154,-3612 -6154,-7268 0,-2745 1501,-5139 3728,-6406l0 6038 0 2427 4834 0 0 5204 0 2473c846,-105 1658,-317 2423,-622l3 -1 0 -1c3619,-1445 6176,-4982 6176,-9116 0,-5010 -3754,-9143 -8602,-9741l0 2473z"/>
  </g>
 </g>
</svg>
