<?xml version="1.0" encoding="UTF-8"?>
<!DOCTYPE svg PUBLIC "-//W3C//DTD SVG 1.1//EN" "http://www.w3.org/Graphics/SVG/1.1/DTD/svg11.dtd">
<!-- Creator: CorelDRAW X7 -->
<svg xmlns="http://www.w3.org/2000/svg" xml:space="preserve" width="48px" height="48px" version="1.1" style="shape-rendering:geometricPrecision; text-rendering:geometricPrecision; image-rendering:optimizeQuality; fill-rule:evenodd; clip-rule:evenodd"
viewBox="0 0 4800 4800"
 xmlns:xlink="http://www.w3.org/1999/xlink">
 <defs>
  <style type="text/css">
   <![CDATA[
    .fil0 {fill:#718FC8}
   ]]>
  </style>
 </defs>
 <g id="Layer_x0020_1">
  <metadata id="CorelCorpID_0Corel-Layer"/>
  <path class="fil0" d="M2695 609c854,143 1506,890 1506,1790 0,677 -367,1266 -912,1579l0 -1070 0 -418 0 -180 -1184 0 0 -1700 0 -609c-207,26 -406,78 -593,153l-1 1 0 0c-885,356 -1511,1227 -1511,2246 0,1234 919,2252 2105,2399l0 -609c-854,-143 -1506,-890 -1506,-1790 0,-677 367,-1266 912,-1579l0 1488 0 598 1184 0 0 1282 0 609c207,-26 406,-78 593,-153l1 0 0 0c885,-357 1511,-1228 1511,-2247 0,-1234 -918,-2252 -2105,-2399l0 609z"/>
 </g>
</svg>
