<?xml version="1.0" encoding="UTF-8"?>
<!DOCTYPE svg PUBLIC "-//W3C//DTD SVG 1.1//EN" "http://www.w3.org/Graphics/SVG/1.1/DTD/svg11.dtd">
<!-- Creator: CorelDRAW X7 -->
<svg xmlns="http://www.w3.org/2000/svg" xml:space="preserve" width="48px" height="48px" version="1.1" style="shape-rendering:geometricPrecision; text-rendering:geometricPrecision; image-rendering:optimizeQuality; fill-rule:evenodd; clip-rule:evenodd"
viewBox="0 0 4800 4800"
 xmlns:xlink="http://www.w3.org/1999/xlink">
 <defs>
  <style type="text/css">
   <![CDATA[
    .fil2 {fill:#FEFEFE}
    .fil0 {fill:#718FC8}
    .fil1 {fill:#5776AE}
   ]]>
  </style>
 </defs>
 <g id="Layer_x0020_1">
  <metadata id="CorelCorpID_0Corel-Layer"/>
  <g id="_455213136">
   <rect class="fil0" width="4800" height="4800" rx="567" ry="554"/>
   <path class="fil1" d="M4800 2708l0 1525c0,312 -255,567 -567,567l-2458 0 -885 -1350c-20,-29 -39,-58 -58,-88 -172,-280 -271,-609 -271,-962 0,-775 480,-1438 1158,-1709l0 0 1 0c143,-58 296,-97 454,-117l1517 2314c19,-50 35,-101 48,-153l-1113 -1698 0 -464c568,70 1056,399 1342,865l832 1270zm-1521 -1373l-95 -72c32,23 64,47 95,72zm-95 -72l-102 -64c35,20 69,41 102,64zm-102 -64l-107 -55c37,17 73,35 107,55zm-107 -55l-112 -46c39,14 76,29 112,46zm-112 -46l-116 -35c39,10 78,22 116,35zm-116 -35l-121 -26c41,7 81,15 121,26zm840 633l-65 -100c23,32 45,65 65,100zm-65 -100l-74 -94c26,30 51,61 74,94zm-74 -94l-81 -87c28,28 55,57 81,87zm-81 -87l-88 -80c30,25 60,52 88,80zm-2341 1113l17 123c-7,-40 -13,-82 -17,-123zm17 123l28 120c-11,-39 -20,-79 -28,-120zm28 120l38 116c-15,-38 -27,-76 -38,-116zm38 116l47 111c-17,-36 -33,-73 -47,-111zm47 111l57 106c-21,-34 -40,-69 -57,-106zm57 106l65 100c-23,-32 -45,-65 -65,-100zm-82 -1247l-33 85c10,-29 22,-57 33,-85zm-33 85l-27 87c8,-30 17,-59 27,-87zm-27 87l-22 90c6,-30 14,-60 22,-90zm-22 90l-16 92c5,-31 10,-62 16,-92zm-16 92l-10 94c3,-32 6,-63 10,-94zm-10 94l-3 95c0,-32 1,-64 3,-95zm-3 95l6 128c-4,-42 -6,-85 -6,-128zm549 -1102l-69 56c22,-19 46,-38 69,-56zm-69 56l-66 61c21,-21 43,-41 66,-61zm-66 61l-62 64c20,-22 41,-43 62,-64zm-62 64l-57 69c18,-23 37,-46 57,-69zm-57 69l-53 72c16,-24 34,-49 53,-72zm-53 72l-49 76c16,-26 32,-51 49,-76zm-49 76l-43 79c13,-27 28,-53 43,-79zm-43 79l-39 82c12,-28 25,-55 39,-82zm549 -576l-76 47c25,-16 50,-32 76,-47zm-76 47l-74 52c24,-18 49,-35 74,-52z"/>
   <path class="fil2" d="M2626 1037c654,108 1154,677 1154,1363 0,514 -282,963 -699,1201l0 -815 0 -317 0 -138 -907 0 0 -1293 0 -464c-158,20 -311,59 -454,117l-1 0 0 0c-678,271 -1158,934 -1158,1709 0,940 704,1715 1613,1827l0 -464c-654,-108 -1154,-677 -1154,-1363 0,-514 282,-963 699,-1201l0 1132 0 455 907 0 0 976 0 464c158,-20 311,-59 454,-117l1 0 0 0c678,-271 1158,-934 1158,-1709 0,-940 -704,-1715 -1613,-1827l0 464z"/>
  </g>
 </g>
</svg>
