<?xml version="1.0" encoding="UTF-8"?>
<!DOCTYPE svg PUBLIC "-//W3C//DTD SVG 1.1//EN" "http://www.w3.org/Graphics/SVG/1.1/DTD/svg11.dtd">
<!-- Creator: CorelDRAW X7 -->
<svg xmlns="http://www.w3.org/2000/svg" xml:space="preserve" width="512px" height="512px" version="1.1" style="shape-rendering:geometricPrecision; text-rendering:geometricPrecision; image-rendering:optimizeQuality; fill-rule:evenodd; clip-rule:evenodd"
viewBox="0 0 51200 51200"
 xmlns:xlink="http://www.w3.org/1999/xlink">
 <defs>
  <style type="text/css">
   <![CDATA[
    .fil0 {fill:#718FC8}
   ]]>
  </style>
 </defs>
 <g id="Layer_x0020_1">
  <metadata id="CorelCorpID_0Corel-Layer"/>
  <path class="fil0" d="M28744 6500c9116,1520 16068,9490 16068,19096 0,7212 -3920,13503 -9733,16832l0 -11411 0 -4455 0 -1921 -12622 0 0 -18129 0 -6498c-2209,275 -4330,832 -6327,1635l-8 2 0 1c-9448,3799 -16123,13092 -16123,23956 0,13164 9800,24023 22458,25594l0 -6498c-9116,-1521 -16068,-9491 -16068,-19096 0,-7212 3919,-13503 9733,-16833l0 15866 0 6376 12622 0 0 13674 0 6498c2209,-275 4329,-832 6326,-1634l9 -3 0 0c9447,-3800 16122,-13092 16122,-23956 0,-13164 -9799,-24023 -22457,-25594l0 6498z"/>
 </g>
</svg>
