<?xml version="1.0" encoding="UTF-8"?>
<!DOCTYPE svg PUBLIC "-//W3C//DTD SVG 1.1//EN" "http://www.w3.org/Graphics/SVG/1.1/DTD/svg11.dtd">
<!-- Creator: CorelDRAW X7 -->
<svg xmlns="http://www.w3.org/2000/svg" xml:space="preserve" width="512px" height="512px" version="1.1" style="shape-rendering:geometricPrecision; text-rendering:geometricPrecision; image-rendering:optimizeQuality; fill-rule:evenodd; clip-rule:evenodd"
viewBox="0 0 51200 51200"
 xmlns:xlink="http://www.w3.org/1999/xlink">
 <defs>
  <style type="text/css">
   <![CDATA[
    .fil2 {fill:#FEFEFE}
    .fil0 {fill:#718FC8}
    .fil1 {fill:#5776AE}
   ]]>
  </style>
 </defs>
 <g id="Layer_x0020_1">
  <metadata id="CorelCorpID_0Corel-Layer"/>
  <g id="_252232304">
   <rect class="fil0" width="51200" height="51200" rx="6050" ry="5905"/>
   <path class="fil1" d="M51200 28886l0 16264c0,3328 -2722,6050 -6050,6050l-26219 0 -9435 -14397c-215,-309 -423,-625 -620,-947 -1831,-2983 -2887,-6494 -2887,-10251 0,-8269 5113,-15342 12351,-18234l0 -1 6 -2c1530,-610 3154,-1034 4846,-1243l16176 24682c201,-530 372,-1076 511,-1633l-11871 -18113 0 -4946c6061,747 11265,4256 14317,9229l8875 13542zm-16229 -14646l-1014 -768c350,242 688,498 1014,768zm-1014 -768l-1079 -680c370,211 730,438 1079,680zm-1079 -680l-1141 -587c390,180 771,375 1141,587zm-1141 -587l-1195 -487c407,145 806,307 1195,487zm-1195 -487l-1245 -383c422,109 838,237 1245,383zm-1245 -383l-1289 -274c437,72 866,164 1289,274zm8966 6754l-697 -1068c247,345 480,701 697,1068zm-697 -1068l-785 -1000c276,322 538,655 785,1000zm-785 -1000l-867 -929c302,297 592,607 867,929zm-867 -929l-943 -852c327,270 641,555 943,852zm-24969 11868l181 1321c-79,-434 -140,-874 -181,-1321zm181 1321l295 1281c-117,-420 -215,-847 -295,-1281zm295 1281l404 1235c-152,-403 -287,-816 -404,-1235zm404 1235l507 1185c-186,-385 -355,-781 -507,-1185zm507 1185l605 1129c-217,-366 -420,-743 -605,-1129zm605 1129l697 1068c-247,-346 -480,-701 -697,-1068zm-869 -13305l-352 905c108,-306 225,-608 352,-905zm-352 905l-294 932c88,-316 187,-625 294,-932zm-294 932l-232 958c67,-324 145,-643 232,-958zm-232 958l-168 981c45,-330 102,-658 168,-981zm-168 981l-104 1002c23,-337 58,-671 104,-1002zm-104 1002l-34 1021c0,-344 11,-683 34,-1021zm-34 1021l61 1355c-41,-446 -61,-899 -61,-1355zm5856 -11759l-742 600c241,-208 488,-408 742,-600zm-742 600l-702 646c227,-223 461,-438 702,-646zm-702 646l-659 689c212,-236 432,-467 659,-689zm-659 689l-613 732c196,-251 401,-495 613,-732zm-613 732l-566 770c180,-263 369,-520 566,-770zm-566 770l-517 808c163,-276 337,-545 517,-808zm-517 808l-463 841c145,-287 300,-566 463,-841zm-463 841l-410 874c128,-296 264,-588 410,-874zm5862 -6139l-818 501c266,-175 539,-343 818,-501zm-818 501l-782 552c254,-192 515,-377 782,-552z"/>
   <path class="fil2" d="M28008 11061c6983,1157 12309,7223 12309,14534 0,5490 -3003,10278 -7456,12812l0 -8685 0 -3391 0 -1462 -9669 0 0 -13799 0 -4945c-1692,209 -3316,633 -4846,1243l-6 2 0 1c-7238,2892 -12351,9965 -12351,18234 0,10019 7507,18284 17203,19480l0 -4946c-6983,-1157 -12308,-7223 -12308,-14534 0,-5490 3002,-10278 7456,-12812l0 12076 0 4853 9668 0 0 10407 0 4946c1693,-209 3317,-633 4847,-1244l6 -1 0 -1c7237,-2892 12350,-9965 12350,-18234 0,-10019 -7506,-18284 -17203,-19480l0 4946z"/>
  </g>
 </g>
</svg>
