<?xml version="1.0" encoding="UTF-8"?>
<!DOCTYPE svg PUBLIC "-//W3C//DTD SVG 1.1//EN" "http://www.w3.org/Graphics/SVG/1.1/DTD/svg11.dtd">
<!-- Creator: CorelDRAW X7 -->
<svg xmlns="http://www.w3.org/2000/svg" xml:space="preserve" width="72px" height="72px" version="1.1" style="shape-rendering:geometricPrecision; text-rendering:geometricPrecision; image-rendering:optimizeQuality; fill-rule:evenodd; clip-rule:evenodd"
viewBox="0 0 7200 7200"
 xmlns:xlink="http://www.w3.org/1999/xlink">
 <defs>
  <style type="text/css">
   <![CDATA[
    .fil0 {fill:#718FC8}
   ]]>
  </style>
 </defs>
 <g id="Layer_x0020_1">
  <metadata id="CorelCorpID_0Corel-Layer"/>
  <path class="fil0" d="M4042 914c1282,214 2260,1335 2260,2685 0,1015 -551,1899 -1369,2367l0 -1604 0 -627 0 -270 -1775 0 0 -2549 0 -914c-311,38 -609,117 -890,230l-1 0 0 0c-1329,534 -2267,1841 -2267,3369 0,1851 1378,3378 3158,3599l0 -913c-1282,-214 -2260,-1335 -2260,-2686 0,-1014 552,-1899 1369,-2367l0 2231 0 897 1775 0 0 1923 0 913c311,-38 609,-116 890,-229l1 -1 0 0c1329,-534 2267,-1841 2267,-3369 0,-1851 -1378,-3378 -3158,-3599l0 914z"/>
 </g>
</svg>
