<?xml version="1.0" encoding="UTF-8"?>
<!DOCTYPE svg PUBLIC "-//W3C//DTD SVG 1.1//EN" "http://www.w3.org/Graphics/SVG/1.1/DTD/svg11.dtd">
<!-- Creator: CorelDRAW X7 -->
<svg xmlns="http://www.w3.org/2000/svg" xml:space="preserve" width="72px" height="72px" version="1.1" style="shape-rendering:geometricPrecision; text-rendering:geometricPrecision; image-rendering:optimizeQuality; fill-rule:evenodd; clip-rule:evenodd"
viewBox="0 0 7200 7200"
 xmlns:xlink="http://www.w3.org/1999/xlink">
 <defs>
  <style type="text/css">
   <![CDATA[
    .fil2 {fill:#FEFEFE}
    .fil0 {fill:#718FC8}
    .fil1 {fill:#5776AE}
   ]]>
  </style>
 </defs>
 <g id="Layer_x0020_1">
  <metadata id="CorelCorpID_0Corel-Layer"/>
  <g id="_257281880">
   <rect class="fil0" width="7200" height="7200" rx="851" ry="830"/>
   <path class="fil1" d="M7200 4062l0 2287c0,468 -383,851 -851,851l-3687 0 -1327 -2025c-30,-43 -59,-87 -87,-133 -257,-419 -406,-913 -406,-1441 0,-1163 719,-2158 1737,-2565l0 0 1 0c215,-86 443,-145 681,-175l2275 3471c28,-74 53,-151 72,-229l-1669 -2548 0 -695c852,105 1584,598 2013,1298l1248 1904zm-2282 -2059l-143 -109c49,34 97,71 143,109zm-143 -109l-152 -95c53,30 103,61 152,95zm-152 -95l-160 -83c55,26 108,53 160,83zm-160 -83l-168 -68c57,20 113,43 168,68zm-168 -68l-175 -54c59,15 118,33 175,54zm-175 -54l-181 -39c61,10 121,23 181,39zm1261 950l-98 -150c34,48 67,98 98,150zm-98 -150l-111 -141c39,45 76,92 111,141zm-111 -141l-121 -131c42,42 83,86 121,131zm-121 -131l-133 -119c46,38 90,77 133,119zm-3512 1669l26 186c-12,-61 -20,-123 -26,-186zm26 186l41 180c-16,-59 -30,-119 -41,-180zm41 180l57 174c-22,-57 -41,-115 -57,-174zm57 174l71 167c-26,-55 -50,-110 -71,-167zm71 167l85 158c-30,-51 -59,-104 -85,-158zm85 158l98 150c-34,-48 -67,-98 -98,-150zm-122 -1871l-49 127c15,-43 31,-85 49,-127zm-49 127l-42 132c13,-45 26,-88 42,-132zm-42 132l-32 134c9,-45 20,-90 32,-134zm-32 134l-24 138c6,-46 14,-92 24,-138zm-24 138l-15 141c4,-47 8,-94 15,-141zm-15 141l-5 144c0,-49 2,-96 5,-144zm-5 144l9 190c-6,-62 -9,-126 -9,-190zm824 -1654l-104 84c34,-29 68,-57 104,-84zm-104 84l-99 91c32,-31 65,-61 99,-91zm-99 91l-93 97c30,-33 61,-65 93,-97zm-93 97l-86 103c28,-35 56,-70 86,-103zm-86 103l-80 108c26,-37 52,-73 80,-108zm-80 108l-72 114c23,-39 47,-77 72,-114zm-72 114l-65 118c20,-40 42,-79 65,-118zm-65 118l-58 123c18,-41 37,-82 58,-123zm824 -863l-115 70c37,-24 76,-48 115,-70zm-115 70l-110 78c36,-27 72,-53 110,-78z"/>
   <path class="fil2" d="M3939 1555c982,163 1731,1016 1731,2044 0,772 -423,1446 -1049,1802l0 -1221 0 -477 0 -206 -1360 0 0 -1940 0 -696c-238,30 -466,89 -681,175l-1 0 0 0c-1018,407 -1737,1402 -1737,2565 0,1409 1056,2571 2419,2739l0 -695c-982,-163 -1731,-1016 -1731,-2044 0,-772 423,-1446 1049,-1802l0 1698 0 683 1360 0 0 1463 0 696c238,-30 466,-89 681,-175l1 0 0 0c1018,-407 1737,-1402 1737,-2565 0,-1409 -1056,-2571 -2419,-2739l0 695z"/>
  </g>
 </g>
</svg>
