<?xml version="1.0" encoding="UTF-8"?>
<!DOCTYPE svg PUBLIC "-//W3C//DTD SVG 1.1//EN" "http://www.w3.org/Graphics/SVG/1.1/DTD/svg11.dtd">
<!-- Creator: CorelDRAW X7 -->
<svg xmlns="http://www.w3.org/2000/svg" xml:space="preserve" width="96px" height="96px" version="1.1" style="shape-rendering:geometricPrecision; text-rendering:geometricPrecision; image-rendering:optimizeQuality; fill-rule:evenodd; clip-rule:evenodd"
viewBox="0 0 9600 9600"
 xmlns:xlink="http://www.w3.org/1999/xlink">
 <defs>
  <style type="text/css">
   <![CDATA[
    .fil0 {fill:#718FC8}
   ]]>
  </style>
 </defs>
 <g id="Layer_x0020_1">
  <metadata id="CorelCorpID_0Corel-Layer"/>
  <path class="fil0" d="M5390 1218c1709,286 3012,1780 3012,3581 0,1352 -735,2532 -1825,3156l0 -2139 0 -836 0 -360 -2366 0 0 -3399 0 -1219c-415,52 -812,157 -1187,307l-1 0 0 1c-1772,712 -3023,2454 -3023,4491 0,2469 1837,4505 4211,4799l0 -1218c-1710,-285 -3013,-1780 -3013,-3581 0,-1352 735,-2531 1825,-3156l0 2975 0 1196 2367 0 0 2564 0 1218c414,-52 811,-156 1186,-306l1 -1 0 0c1772,-712 3023,-2455 3023,-4492 0,-2468 -1837,-4504 -4210,-4799l0 1218z"/>
 </g>
</svg>
