<?xml version="1.0" encoding="UTF-8"?>
<!DOCTYPE svg PUBLIC "-//W3C//DTD SVG 1.1//EN" "http://www.w3.org/Graphics/SVG/1.1/DTD/svg11.dtd">
<!-- Creator: CorelDRAW X7 -->
<svg xmlns="http://www.w3.org/2000/svg" xml:space="preserve" width="96px" height="96px" version="1.1" style="shape-rendering:geometricPrecision; text-rendering:geometricPrecision; image-rendering:optimizeQuality; fill-rule:evenodd; clip-rule:evenodd"
viewBox="0 0 9600 9600"
 xmlns:xlink="http://www.w3.org/1999/xlink">
 <defs>
  <style type="text/css">
   <![CDATA[
    .fil2 {fill:#FEFEFE}
    .fil0 {fill:#718FC8}
    .fil1 {fill:#5776AE}
   ]]>
  </style>
 </defs>
 <g id="Layer_x0020_1">
  <metadata id="CorelCorpID_0Corel-Layer"/>
  <g id="_257284688">
   <rect class="fil0" width="9600" height="9600" rx="1134" ry="1107"/>
   <path class="fil1" d="M9600 5416l0 3050c0,624 -510,1134 -1134,1134l-4916 0 -1770 -2699c-40,-58 -79,-118 -116,-178 -343,-559 -541,-1218 -541,-1922 0,-1551 959,-2877 2316,-3419l0 0 1 -1c287,-114 591,-193 909,-233l3033 4628c37,-99 69,-201 95,-306l-2225 -3396 0 -927c1136,140 2112,797 2684,1730l1664 2539zm-3043 -2746l-190 -144c66,45 129,93 190,144zm-190 -144l-202 -128c69,40 137,83 202,128zm-202 -128l-214 -110c73,34 144,71 214,110zm-214 -110l-224 -91c76,27 151,58 224,91zm-224 -91l-234 -72c79,21 157,45 234,72zm-234 -72l-241 -51c82,13 162,31 241,51zm1681 1267l-130 -201c46,65 90,132 130,201zm-130 -201l-147 -187c51,60 100,123 147,187zm-147 -187l-163 -174c57,55 111,113 163,174zm-163 -174l-177 -160c61,51 120,104 177,160zm-4682 2225l34 248c-15,-82 -26,-164 -34,-248zm34 248l55 240c-21,-79 -40,-159 -55,-240zm55 240l76 232c-28,-76 -54,-153 -76,-232zm76 232l95 222c-35,-73 -66,-147 -95,-222zm95 222l114 211c-41,-68 -79,-139 -114,-211zm114 211l130 200c-46,-64 -90,-131 -130,-200zm-163 -2494l-66 169c20,-57 42,-114 66,-169zm-66 169l-55 175c16,-59 35,-117 55,-175zm-55 175l-44 180c13,-61 27,-121 44,-180zm-44 180l-31 184c8,-62 19,-124 31,-184zm-31 184l-20 187c5,-63 11,-125 20,-187zm-20 187l-6 192c0,-64 2,-128 6,-192zm-6 192l11 254c-7,-84 -11,-168 -11,-254zm1098 -2205l-139 113c45,-39 91,-77 139,-113zm-139 113l-132 121c42,-42 86,-82 132,-121zm-132 121l-124 129c40,-44 81,-88 124,-129zm-124 129l-115 137c37,-47 76,-93 115,-137zm-115 137l-106 145c34,-50 69,-98 106,-145zm-106 145l-96 151c30,-52 62,-102 96,-151zm-96 151l-88 158c28,-54 57,-106 88,-158zm-88 158l-76 164c24,-56 49,-111 76,-164zm1100 -1151l-154 94c50,-33 101,-65 154,-94zm-154 94l-146 103c47,-36 96,-71 146,-103z"/>
   <path class="fil2" d="M5252 2074c1309,217 2307,1354 2307,2725 0,1029 -563,1927 -1398,2402l0 -1628 0 -636 0 -274 -1812 0 0 -2587 0 -928c-318,40 -622,119 -909,233l-1 1 0 0c-1357,542 -2316,1868 -2316,3419 0,1879 1407,3428 3226,3652l0 -927c-1310,-217 -2308,-1354 -2308,-2725 0,-1029 563,-1927 1398,-2402l0 2264 0 910 1813 0 0 1951 0 928c317,-40 621,-119 908,-234l1 0 0 0c1357,-542 2316,-1868 2316,-3419 0,-1879 -1407,-3428 -3225,-3652l0 927z"/>
  </g>
 </g>
</svg>
