<?xml version="1.0" encoding="UTF-8"?>
<!DOCTYPE svg PUBLIC "-//W3C//DTD SVG 1.1//EN" "http://www.w3.org/Graphics/SVG/1.1/DTD/svg11.dtd">
<!-- Creator: CorelDRAW X7 -->
<svg xmlns="http://www.w3.org/2000/svg" xml:space="preserve" width="1024px" height="251px" version="1.1" style="shape-rendering:geometricPrecision; text-rendering:geometricPrecision; image-rendering:optimizeQuality; fill-rule:evenodd; clip-rule:evenodd"
viewBox="0 0 102400 25100"
 xmlns:xlink="http://www.w3.org/1999/xlink">
 <defs>
  <style type="text/css">
   <![CDATA[
    .fil0 {fill:#718FC8}
   ]]>
  </style>
 </defs>
 <g id="Layer_x0020_1">
  <metadata id="CorelCorpID_0Corel-Layer"/>
  <path class="fil0" d="M14167 3180c4500,746 7932,4656 7932,9367 0,3538 -1935,6623 -4805,8256l0 -5597 0 -2185 0 -942 -6231 0 0 -8892 0 -3187c-1090,135 -2137,408 -3123,801l-4 1 0 1c-4664,1863 -7959,6421 -7959,11750 0,6457 4838,11783 11086,12554l0 -3187c-4500,-746 -7932,-4656 -7932,-9367 0,-3538 1935,-6623 4805,-8256l0 7782 0 3127 6231 0 0 6707 0 3187c1090,-134 2137,-408 3123,-801l4 -2 0 0c4664,-1863 7959,-6421 7959,-11750 0,-6457 -4837,-11783 -11086,-12554l0 3187zm22374 4488c-960,0 -1824,337 -2445,959 -608,607 -946,1472 -946,2431l0 6212 1783 0 0 -6253c0,-1000 608,-1607 1608,-1607 1012,0 1620,607 1620,1607l0 6253 1783 0 0 -6212c0,-959 -337,-1824 -946,-2431 -621,-622 -1485,-959 -2457,-959zm11858 3390c0,-959 -338,-1824 -946,-2431 -621,-622 -1485,-959 -2458,-959 -959,0 -1823,337 -2445,959 -607,607 -945,1472 -945,2431l0 6212 1783 0 0 -6253c0,-1000 608,-1607 1607,-1607 1013,0 1621,607 1621,1607l0 1917 -2513 0 0 1716 2513 0 0 2620 1783 0 0 -6212zm8212 3781c0,-999 -366,-1634 -1027,-2012 810,-379 1310,-1067 1310,-2134 0,-1756 -1256,-2796 -3215,-2796l-3592 0 0 9373 1796 0 0 -7712 1796 0c1433,0 1433,919 1433,1229 0,1162 -1162,1230 -1392,1230l-1135 0 0 1661 1027 0c837,0 1216,378 1216,1202l0 2390 1783 0 0 -2431zm8251 0c0,-999 -364,-1634 -1026,-2012 810,-379 1310,-1067 1310,-2134 0,-1756 -1256,-2796 -3214,-2796l-3593 0 0 9373 1796 0 0 -7712 1797 0c1432,0 1432,919 1432,1229 0,1162 -1162,1230 -1392,1230l-1135 0 0 1661 1027 0c837,0 1216,378 1216,1202l0 2390 1782 0 0 -2431zm8495 -3781c0,-959 -337,-1824 -945,-2431 -621,-622 -1486,-959 -2458,-959 -959,0 -1823,337 -2445,959 -607,607 -945,1472 -945,2431l0 6212 1783 0 0 -6253c0,-1000 608,-1607 1607,-1607 1013,0 1621,607 1621,1607l0 1917 -2512 0 0 1716 2512 0 0 2620 1782 0 0 -6212zm7577 -3161l-6807 0 0 1661 6807 0 0 -1661zm-2512 2377l-1783 0 0 6996 1783 0 0 -6996zm5416 -2377l-1783 0 0 9373 1783 0 0 -9373zm5929 -229c-2661,0 -4592,2161 -4592,4875 0,2728 1931,4889 4592,4889 2648,0 4579,-2161 4579,-4889 0,-2714 -1931,-4875 -4579,-4875zm0 8076c-1553,0 -2796,-1445 -2796,-3201 0,-1742 1243,-3187 2796,-3187 1540,0 2782,1445 2782,3187 0,1756 -1242,3201 -2782,3201zm9252 -8076c-959,0 -1823,337 -2445,959 -607,607 -945,1472 -945,2431l0 6212 1783 0 0 -6253c0,-1000 607,-1607 1607,-1607 1013,0 1621,607 1621,1607l0 6253 1782 0 0 -6212c0,-959 -337,-1824 -945,-2431 -621,-622 -1486,-959 -2458,-959z"/>
 </g>
</svg>
